<?xml version="1.0" standalone="no"?>
<!DOCTYPE svg PUBLIC "-//W3C//DTD SVG 20010904//EN"
 "http://www.w3.org/TR/2001/REC-SVG-20010904/DTD/svg10.dtd">
<svg version="1.0" xmlns="http://www.w3.org/2000/svg"
 width="200.000000pt" height="154.000000pt" viewBox="0 0 400.000000 72.000000"
 preserveAspectRatio="xMidYMid meet">

<g transform="translate(0.000000,154.000000) scale(0.100000,-0.100000)"
fill="#04A777" stroke="none">
<path d="M1574 1483 c-14 -32 -38 -87 -55 -123 -25 -54 -28 -71 -20 -92 12
-32 47 -57 84 -60 l27 -2 0 -298 0 -298 430 0 430 0 2 298 3 297 22 3 c25 4
73 55 73 78 0 9 -24 69 -52 135 l-53 119 -432 0 -433 0 -26 -57z m291 0 c-8
-45 -25 -157 -25 -165 0 -5 -31 -8 -69 -8 l-69 0 29 97 c16 53 29 98 29 100 0
1 25 3 55 3 54 0 54 0 50 -27z m304 -55 c7 -46 14 -91 17 -100 5 -16 -3 -18
-65 -18 l-71 0 0 100 0 100 54 0 54 0 11 -82z m320 -12 c23 -51 41 -96 41
-100 0 -3 -29 -6 -65 -6 -36 0 -65 2 -65 3 0 2 -13 47 -29 100 l-29 97 53 0
53 0 41 -94z m-661 -148 c-24 -37 -63 -46 -95 -22 -48 36 -41 44 37 44 l72 0
-14 -22z m352 2 c-26 -48 -94 -48 -120 0 -10 19 -8 20 60 20 68 0 70 -1 60
-20z m360 11 c0 -21 -54 -52 -80 -46 -31 8 -50 23 -50 41 0 11 16 14 65 14 36
0 65 -4 65 -9z m-618 -72 c44 -2 63 3 85 23 l21 20 31 -23 c17 -12 44 -22 61
-22 17 0 44 10 61 22 l31 23 23 -22 c15 -14 36 -22 59 -22 36 0 86 24 86 42 0
5 11 -2 25 -16 l25 -25 0 -279 c0 -242 -2 -280 -15 -280 -13 0 -15 36 -15 265
l0 265 -160 0 -160 0 0 -265 0 -265 -220 0 -220 0 0 283 c0 272 1 285 20 302
20 18 21 18 43 -2 12 -11 33 -23 46 -26 29 -7 89 16 97 38 5 13 10 11 30 -10
13 -14 33 -26 46 -26z m468 -304 l0 -255 -145 0 -145 0 0 255 0 255 145 0 145
0 0 -255z"/>
<path d="M1670 970 l0 -210 190 0 190 0 0 210 0 210 -190 0 -190 0 0 -210z
m360 140 c0 -38 -4 -50 -15 -50 -9 0 -15 9 -15 25 0 22 -4 25 -35 25 -31 0
-35 -3 -35 -25 0 -18 -5 -25 -20 -25 -15 0 -20 7 -20 25 0 22 -4 25 -35 25
-31 0 -35 -3 -35 -25 0 -18 -5 -25 -20 -25 -15 0 -20 7 -20 25 0 22 -4 25 -35
25 -31 0 -35 -3 -35 -25 0 -14 -4 -25 -10 -25 -5 0 -10 23 -10 50 l0 50 170 0
170 0 0 -50z m0 -115 l0 -45 -45 0 c-41 0 -45 2 -45 25 0 22 -4 25 -35 25 -31
0 -35 -3 -35 -25 0 -18 -5 -25 -20 -25 -15 0 -20 7 -20 25 0 22 -4 25 -35 25
-31 0 -35 -3 -35 -25 0 -22 -4 -25 -35 -25 -35 0 -35 0 -35 45 l0 45 170 0
170 0 0 -45z m0 -110 c0 -33 -4 -45 -15 -45 -10 0 -15 10 -15 30 0 28 -3 30
-35 30 -32 0 -35 -2 -35 -30 0 -23 -4 -30 -20 -30 -16 0 -20 7 -20 30 0 28 -3
30 -35 30 -32 0 -35 -2 -35 -30 0 -23 -4 -30 -20 -30 -16 0 -20 7 -20 30 0 28
-3 30 -35 30 -32 0 -35 -2 -35 -30 0 -16 -4 -30 -10 -30 -5 0 -10 20 -10 45
l0 45 170 0 170 0 0 -45z m0 -90 l0 -25 -170 0 -170 0 0 25 0 25 170 0 170 0
0 -25z"/>
<path d="M2236 1081 c-3 -5 1 -11 9 -14 9 -4 12 -1 8 9 -6 16 -10 17 -17 5z"/>
<path d="M2266 1037 c6 -15 1 -18 -32 -17 -22 0 -56 -3 -78 -6 -38 -6 -38 -7
-32 -43 3 -20 6 -44 6 -55 0 -19 21 -19 183 0 51 6 55 13 41 83 -6 29 -10 32
-38 29 -19 -2 -36 3 -44 12 -10 13 -11 13 -6 -3z m74 -39 c0 -13 3 -33 6 -45
6 -20 2 -21 -73 -28 -43 -3 -90 -8 -104 -11 -25 -5 -27 -3 -30 40 l-4 45 85 6
c47 4 90 8 95 10 21 7 25 4 25 -17z"/>
<path d="M2126 871 c-7 -11 18 -33 27 -24 4 3 7 12 7 20 0 15 -26 18 -34 4z"/>
<path d="M910 795 c0 -128 1 -135 20 -135 16 0 20 7 20 33 0 31 14 57 32 57 4
0 21 -20 38 -45 19 -28 39 -45 51 -45 17 0 14 8 -23 60 l-42 60 32 33 c18 18
32 36 32 40 0 19 -30 2 -77 -45 l-53 -52 0 87 c0 71 -3 87 -15 87 -13 0 -15
-22 -15 -135z"/>
<path d="M313 890 c-51 -30 -66 -62 -61 -122 4 -42 11 -57 37 -80 17 -15 42
-30 56 -34 51 -13 137 19 121 44 -5 9 -15 8 -36 -3 -35 -18 -60 -19 -95 -3
-29 13 -55 55 -55 88 0 29 27 77 49 90 28 15 83 12 107 -5 20 -14 34 -11 34 6
0 15 -58 39 -92 39 -18 0 -47 -9 -65 -20z"/>
<path d="M2566 858 c-11 -97 -7 -188 8 -188 15 0 26 30 26 73 0 27 0 27 70 27
l70 0 0 -55 c0 -42 3 -55 15 -55 13 0 15 21 15 125 0 104 -2 125 -15 125 -12
0 -15 -13 -15 -55 l0 -55 -70 0 -70 0 0 55 c0 40 -4 55 -14 55 -9 0 -15 -18
-20 -52z"/>
<path d="M1222 835 c-16 -14 -32 -37 -35 -52 -6 -32 12 -81 37 -102 20 -17 84
-18 115 -1 34 18 12 32 -27 18 -27 -11 -37 -10 -60 3 -15 8 -28 22 -30 32 -3
15 6 17 72 17 69 0 76 2 76 20 0 78 -87 117 -148 65z m102 -21 c32 -32 20 -44
-44 -44 -45 0 -60 3 -60 14 0 24 29 46 60 46 16 0 36 -7 44 -16z"/>
<path d="M633 840 c-40 -16 -26 -30 22 -23 47 6 75 -6 75 -33 0 -10 -13 -14
-43 -14 -54 0 -87 -22 -87 -59 0 -37 20 -53 65 -53 20 0 42 6 50 12 11 9 15 9
15 1 0 -6 7 -11 15 -11 12 0 15 15 15 75 0 62 -4 79 -20 95 -21 21 -68 25
-107 10z m97 -109 c0 -42 -80 -68 -99 -33 -17 31 7 50 67 51 25 1 32 -3 32
-18z"/>
<path d="M2899 835 c-52 -29 -62 -111 -17 -151 13 -13 35 -19 65 -19 37 0 49
5 69 28 68 79 -26 194 -117 142z m95 -37 c35 -50 8 -108 -50 -108 -58 0 -84
65 -44 108 27 29 74 29 94 0z"/>
<path d="M3116 843 c-3 -3 -6 -33 -6 -65 0 -58 12 -95 34 -110 19 -13 60 -9
84 8 20 14 22 14 22 0 0 -9 7 -16 15 -16 12 0 15 17 15 90 0 73 -3 90 -15 90
-12 0 -15 -13 -15 -58 0 -64 -18 -92 -58 -92 -37 0 -52 26 -52 90 0 55 -9 78
-24 63z"/>
<path d="M3375 816 c-22 -32 -9 -55 41 -77 68 -29 50 -77 -19 -51 -16 6 -34 9
-40 5 -17 -10 24 -33 61 -33 50 0 72 16 72 51 0 26 -6 32 -44 49 -52 22 -61
33 -40 51 12 10 22 10 44 2 22 -8 30 -8 34 2 6 16 -15 25 -60 25 -24 0 -38 -6
-49 -24z"/>
<path d="M3579 811 c-71 -71 1 -182 97 -151 34 11 43 24 25 35 -5 3 -12 1 -16
-5 -11 -17 -64 -11 -85 10 -36 36 -26 43 55 38 81 -5 83 -4 65 49 -21 58 -94
70 -141 24z m109 -19 c21 -27 14 -32 -48 -32 -33 0 -60 4 -60 9 0 5 12 19 27
30 28 23 59 20 81 -7z"/>
</g>
</svg>
